<?xml version="1.0" encoding="utf-8"?>
<!-- Generator: Adobe Illustrator 23.1.1, SVG Export Plug-In . SVG Version: 6.00 Build 0)  -->
<svg version="1.1" id="图层_1" xmlns="http://www.w3.org/2000/svg" xmlns:xlink="http://www.w3.org/1999/xlink" x="0px" y="0px"
	 viewBox="0 0 32 32" style="enable-background:new 0 0 32 32;" xml:space="preserve">
<style type="text/css">
	.st0{fill:#C1A766;}
</style>
<g>
	<path class="st0" d="M16.6,6.4H2.1c-0.7,0-1.3-0.6-1.3-1.3c0-0.7,0.6-1.3,1.3-1.3h14.5c0.7,0,1.3,0.6,1.3,1.3
		C17.9,5.8,17.3,6.4,16.6,6.4z M9.4,28.5H2.1c-0.7,0-1.3-0.6-1.3-1.3c0-0.7,0.6-1.3,1.3-1.3h7.2c0.7,0,1.3,0.6,1.3,1.3
		C10.7,27.9,10.1,28.5,9.4,28.5z M8.9,13.8H2.1c-0.7,0-1.3-0.6-1.3-1.3c0-0.7,0.6-1.3,1.3-1.3h6.7c0.7,0,1.3,0.6,1.3,1.3
		C10.2,13.2,9.6,13.8,8.9,13.8z M6.8,21.1H2.1c-0.7,0-1.3-0.6-1.3-1.3c0-0.7,0.6-1.3,1.3-1.3h4.6c0.7,0,1.3,0.6,1.3,1.3
		C8.1,20.5,7.5,21.1,6.8,21.1z M20.8,27.7c-5.2,0-9.5-4.4-9.5-9.7c0-5.4,4.2-9.7,9.5-9.7s9.5,4.4,9.5,9.7c0,2.5-0.9,4.8-2.5,6.6
		C25.9,26.6,23.4,27.7,20.8,27.7L20.8,27.7z M20.8,10.9c-3.8,0-6.9,3.2-6.9,7.1c0,3.9,3.1,7.1,6.9,7.1c1.9,0,3.7-0.8,5.1-2.3
		c1.2-1.3,1.8-3,1.8-4.8C27.7,14.1,24.6,10.9,20.8,10.9L20.8,10.9z"/>
	<path class="st0" d="M30.1,29.6c-0.3,0-0.7-0.1-0.9-0.4l-3.5-3.9c-0.5-0.5-0.5-1.4,0.1-1.9c0.5-0.5,1.3-0.5,1.8,0.1l3.5,3.9
		c0.5,0.5,0.5,1.4-0.1,1.9C30.7,29.5,30.4,29.6,30.1,29.6z"/>
</g>
</svg>
