<?xml version="1.0" standalone="no" ?>
<!DOCTYPE svg PUBLIC "-//W3C//DTD SVG 1.1//EN" "http://www.w3.org/Graphics/SVG/1.1/DTD/svg11.dtd">
<svg t="1576824960303" class="icon" viewBox="0 0 1024 1024" version="1.1" xmlns="http://www.w3.org/2000/svg" p-id="11034" xmlns:xlink="http://www.w3.org/1999/xlink" width="200" height="200">
    <g transform="translate(0, -250)">
    <path fill="#46433C" d="M935.674 685.582L540.081 286.395c-14.055-14.175-36.936-14.272-51.11-0.22000001l-0.008 0.00700001c-0.145 0.145-0.184 0.33-0.32 0.464-0.61 0.574-1.408 0.719-2.02000001 1.34L87.475 683.551c-14.188 14.069-14.285 36.974-0.219 51.161 14.069 14.189 36.974 14.286 51.162 0.22l375.566-372.197 370.389 373.78c13.84 14.392 36.723 14.83799999 51.113 1 14.392-13.84 14.838-36.724 0.999-51.114a25.475 25.475 0 0 0-0.81-0.819z"></path>
    </g>
</svg>