<?xml version="1.0" encoding="utf-8"?>
<!-- Generator: Adobe Illustrator 23.1.1, SVG Export Plug-In . SVG Version: 6.00 Build 0)  -->
<svg version="1.1" id="图层_1" xmlns="http://www.w3.org/2000/svg" xmlns:xlink="http://www.w3.org/1999/xlink" x="0px" y="0px"
	 viewBox="0 0 32 32" style="enable-background:new 0 0 32 32;" xml:space="preserve">
<style type="text/css">
	.st0{fill:#BEBEBE;}
</style>
<g>
	<path class="st0" d="M16.3,5.9H1.9c-0.7,0-1.3-0.6-1.3-1.3c0-0.7,0.6-1.3,1.3-1.3h14.5c0.7,0,1.3,0.6,1.3,1.3
		C17.6,5.3,17.1,5.9,16.3,5.9z M9.1,28H1.9c-0.7,0-1.3-0.6-1.3-1.3c0-0.7,0.6-1.3,1.3-1.3h7.2c0.7,0,1.3,0.6,1.3,1.3
		C10.4,27.4,9.8,28,9.1,28z M8.6,13.2H1.9c-0.7,0-1.3-0.6-1.3-1.3c0-0.7,0.6-1.3,1.3-1.3h6.7c0.7,0,1.3,0.6,1.3,1.3
		C9.9,12.6,9.3,13.2,8.6,13.2z M6.5,20.6H1.9c-0.7,0-1.3-0.6-1.3-1.3c0-0.7,0.6-1.3,1.3-1.3h4.6c0.7,0,1.3,0.6,1.3,1.3
		C7.8,20,7.2,20.6,6.5,20.6z M20.5,27.2c-5.2,0-9.5-4.4-9.5-9.7c0-5.4,4.2-9.7,9.5-9.7s9.5,4.4,9.5,9.7c0,2.5-0.9,4.8-2.5,6.6
		C25.6,26.1,23.1,27.2,20.5,27.2L20.5,27.2z M20.5,10.4c-3.8,0-6.9,3.2-6.9,7.1c0,3.9,3.1,7.1,6.9,7.1c1.9,0,3.7-0.8,5.1-2.3
		c1.2-1.3,1.8-3,1.8-4.8C27.4,13.6,24.3,10.4,20.5,10.4L20.5,10.4z"/>
	<path class="st0" d="M29.8,29.1c-0.3,0-0.7-0.1-0.9-0.4l-3.5-3.9c-0.5-0.5-0.5-1.4,0.1-1.9c0.5-0.5,1.3-0.5,1.8,0.1l3.5,3.9
		c0.5,0.5,0.5,1.4-0.1,1.9C30.4,29,30.1,29.1,29.8,29.1z"/>
</g>
</svg>
